<?xml version="1.0" encoding="UTF-8" standalone="no"?>
<!DOCTYPE svg PUBLIC "-//W3C//DTD SVG 1.1//EN" "http://www.w3.org/Graphics/SVG/1.1/DTD/svg11.dtd">
<svg width="100%" height="100%" viewBox="0 0 512 512" version="1.1" xmlns="http://www.w3.org/2000/svg" xmlns:xlink="http://www.w3.org/1999/xlink" xml:space="preserve" xmlns:serif="http://www.serif.com/" style="fill-rule:evenodd;clip-rule:evenodd;stroke-linejoin:round;stroke-miterlimit:2;">
    <g transform="matrix(0.348173,0,0,0.348173,254.189,781.822)">
        <g transform="matrix(1,0,0,1,-1062.5,-1754.17)">
            <g transform="matrix(4.16667,0,0,4.16667,0,0)">
                <path d="M345.21,686.726C345.403,688.109 345.447,689.533 345.815,690.868C347.438,696.759 350.992,700.964 357.063,702.401C363.045,703.816 368,701.714 371.778,696.968C376.863,690.579 376.325,680.854 370.67,674.956C365.008,669.052 355.926,668.932 350.144,674.706C346.833,678.013 345.302,682.053 345.21,686.726ZM165.106,686.573C164.915,685.19 164.869,683.767 164.508,682.43C162.953,676.668 159.524,672.494 153.634,670.944C148.006,669.463 143.092,671.129 139.228,675.448C133.533,681.814 133.618,691.724 139.406,697.995C142.826,701.702 147.126,703.489 152.173,702.61C159.909,701.263 165.012,694.757 165.106,686.573ZM165.103,534.852C164.916,533.469 164.83,532.065 164.526,530.709C161.968,519.298 148.861,514.751 140.437,522.329C133.356,528.698 133.245,540.511 140.205,547.014C146.056,552.481 154.734,552.319 160.327,546.578C163.484,543.338 164.988,539.391 165.103,534.852ZM345.194,534.6C345.384,536.04 345.425,537.519 345.79,538.913C347.356,544.899 350.945,549.131 357.078,550.58C363.052,551.992 367.997,549.88 371.773,545.142C376.844,538.781 376.319,529.026 370.691,523.144C364.854,517.045 355.65,517.038 349.833,523.165C346.805,526.353 345.349,530.193 345.194,534.6ZM462.738,480.782L462.738,478.659C462.738,467.441 462.744,456.222 462.73,445.003C462.728,443.603 462.691,442.195 462.54,440.805C461.823,434.205 454.968,429.04 448.469,430.163C441.732,431.328 437.563,436.179 437.538,443.059C437.496,455.154 437.525,467.249 437.53,479.345C437.53,479.796 437.584,480.247 437.619,480.782L462.738,480.782ZM72.797,480.81C72.797,475.151 72.804,469.667 72.795,464.182C72.783,456.645 72.908,449.104 72.694,441.573C72.493,434.518 65.379,428.971 58.479,430.189C51.737,431.379 47.64,436.242 47.607,443.334C47.551,455.37 47.59,467.407 47.598,479.443C47.598,479.888 47.69,480.333 47.742,480.81L72.797,480.81ZM72.785,563.895C72.785,560.059 72.79,556.389 72.785,552.72C72.771,543.381 72.887,534.038 72.693,524.702C72.545,517.581 65.369,512.019 58.378,513.287C51.632,514.511 47.612,519.357 47.587,526.477C47.545,538.444 47.574,550.411 47.581,562.378C47.581,562.876 47.66,563.375 47.704,563.895L72.785,563.895ZM462.72,563.886L462.72,561.877C462.72,551.136 462.728,540.396 462.713,529.656C462.71,527.732 462.722,525.796 462.531,523.886C461.877,517.324 454.969,512.118 448.488,513.232C441.737,514.391 437.559,519.207 437.53,526.076C437.48,538.217 437.514,550.358 437.52,562.499C437.52,562.943 437.594,563.387 437.638,563.886L462.72,563.886ZM72.797,638.934L72.797,636.699C72.797,627.181 72.803,617.664 72.794,608.146C72.791,604.584 72.877,601.017 72.703,597.463C72.375,590.757 65.656,585.298 59.007,586.195C51.99,587.141 47.64,592.083 47.608,599.375C47.552,612.104 47.59,624.834 47.598,637.563C47.598,638.009 47.687,638.454 47.738,638.934L72.797,638.934ZM372.768,638.939C372.804,638.451 372.852,638.112 372.852,637.772C372.849,624.632 372.913,611.492 372.81,598.352C372.745,590.147 364.732,584.355 356.834,586.619C351.133,588.254 347.664,592.977 347.643,599.368C347.601,612.1 347.629,624.831 347.636,637.562C347.636,638.009 347.723,638.455 347.773,638.939L372.768,638.939ZM462.652,638.934C462.687,638.312 462.734,637.855 462.734,637.397C462.738,624.784 462.741,612.171 462.729,599.558C462.728,598.627 462.649,597.691 462.541,596.764C461.807,590.463 455.357,585.399 449.068,586.171C442.085,587.028 437.567,591.993 437.541,599.032C437.493,611.878 437.525,624.725 437.532,637.571C437.532,638.012 437.623,638.452 437.676,638.934L462.652,638.934ZM162.466,638.941C162.576,638.659 162.653,638.554 162.654,638.448C162.658,625.075 162.902,611.695 162.569,598.33C162.353,589.655 154.268,584.207 146.257,586.715C141.118,588.324 137.52,592.982 137.497,598.345C137.441,611.486 137.468,624.627 137.471,637.768C137.471,638.149 137.574,638.531 137.634,638.941L162.466,638.941ZM47.591,798.431L72.667,798.431C72.717,798.123 72.783,797.902 72.783,797.681C72.779,783.612 72.896,769.541 72.714,755.475C72.607,747.231 64.449,741.631 56.571,744.054C50.852,745.813 47.605,750.508 47.596,757.133C47.579,770.268 47.591,783.403 47.591,796.539L47.591,798.431ZM462.585,798.46C462.646,798.124 462.722,797.9 462.722,797.677C462.724,783.783 462.722,769.888 462.708,755.994C462.707,755.354 462.619,754.712 462.541,754.075C461.747,747.591 454.917,742.495 448.497,743.592C441.753,744.745 437.56,749.589 437.539,756.44C437.498,769.985 437.525,783.529 437.531,797.073C437.531,797.517 437.605,797.962 437.649,798.46L462.585,798.46ZM72.642,720.497C72.71,720.108 72.784,719.881 72.784,719.654C72.776,705.524 72.886,691.392 72.698,677.264C72.599,669.785 65.115,664.228 57.811,665.808C51.553,667.162 47.648,671.939 47.614,678.622C47.546,692.168 47.591,705.715 47.6,719.262C47.6,719.651 47.708,720.04 47.777,720.497L72.642,720.497ZM462.574,720.495C462.646,720.101 462.723,719.878 462.723,719.655C462.727,705.816 462.75,691.977 462.706,678.138C462.693,673.976 461.01,670.515 457.628,668.054C453.613,665.132 449.197,664.687 444.733,666.814C440.067,669.038 437.565,672.876 437.547,678.1C437.5,691.763 437.526,705.427 437.532,719.091C437.532,719.536 437.625,719.98 437.682,720.495L462.574,720.495ZM381.355,798.442C381.355,794.205 381.363,790.178 381.353,786.151C381.324,773.476 381.513,760.795 381.189,748.128C380.895,736.674 369.468,728.04 358.206,730.31C348.333,732.301 342.087,740.031 342.057,750.47C342.012,765.891 342.045,781.312 342.045,796.734L342.045,798.442L381.355,798.442ZM168.279,798.439L168.279,796.296C168.279,781.575 168.284,766.855 168.272,752.134C168.271,750.676 168.216,749.214 168.11,747.76C167.286,736.452 156.193,728.06 145.074,730.316C135.23,732.313 129.017,739.963 128.983,750.315C128.936,765.795 128.97,781.275 128.976,796.755C128.976,797.311 129.048,797.867 129.087,798.439L168.279,798.439ZM274.712,476.451L274.712,474.181C274.712,464.54 274.717,454.9 274.71,445.26C274.701,431.121 274.822,416.98 274.623,402.843C274.481,392.746 264.522,385.221 254.671,387.428C246.488,389.261 241.338,395.839 241.332,404.575C241.315,427.946 241.326,451.316 241.33,474.687C241.331,475.249 241.391,475.811 241.427,476.451L274.712,476.451ZM274.712,635.077L274.712,632.99C274.712,598.232 274.712,563.474 274.709,528.717C274.708,527.724 274.695,526.73 274.639,525.739C274.132,516.86 265.001,509.459 256.219,510.8C247.004,512.207 241.332,518.879 241.33,528.381C241.321,563.314 241.326,598.247 241.326,633.18L241.326,635.077L274.712,635.077ZM274.721,798.444L274.721,796.318C274.721,761.55 274.722,726.783 274.719,692.015C274.719,691.256 274.702,690.496 274.671,689.738C274.322,681.244 267.116,674.197 258.621,674.036C248.822,673.851 241.352,681.311 241.345,691.432C241.318,726.55 241.334,761.668 241.334,796.786L241.334,798.444L274.721,798.444ZM508.794,842L1.515,842C1.524,841.175 1.54,840.35 1.54,839.524C1.541,679.056 1.556,518.587 1.462,358.118C1.459,353.849 2.088,349.609 0.614,345.165C-0.603,341.493 0.365,337.096 0.365,332.931C1.157,332.872 1.782,332.825 2.454,332.775C2.569,332.493 2.722,332.24 2.778,331.966C3.853,326.714 4.934,321.463 5.953,316.2C6.032,315.792 5.755,315.232 5.487,314.856C4.809,313.906 4.73,312.992 5.604,312.199C6.46,311.422 7.609,311.393 8.235,312.282C8.645,312.863 8.451,313.921 8.4,314.758C8.362,315.385 7.901,316.041 8.006,316.615C8.845,321.202 9.806,325.765 10.656,330.349C10.949,331.925 11.159,333.414 13.525,332.85L13.525,339.828L15.926,339.828L15.926,337.866C15.926,330.503 16.101,323.134 15.852,315.779C15.728,312.123 16.422,308.516 15.097,304.72C14.031,301.666 14.882,297.942 14.882,294.487C15.68,294.406 16.245,294.349 16.921,294.281C17.805,289.25 18.715,284.27 19.519,279.273C19.639,278.527 19.166,277.704 19.131,276.91C19.096,276.128 18.998,274.925 19.418,274.647C20.011,274.255 21.236,274.257 21.841,274.642C22.251,274.902 22.153,276.115 22.109,276.892C22.064,277.687 21.658,278.476 21.682,279.259C21.714,280.297 22.005,281.328 22.193,282.36C22.921,286.356 23.652,290.351 24.37,294.281C25.13,294.373 25.691,294.442 26.487,294.539L26.487,299.863C26.689,299.886 26.89,299.908 27.092,299.931C27.194,299.349 27.383,298.767 27.385,298.184C27.407,292.165 27.558,286.141 27.358,280.128C27.114,272.797 28.126,265.446 26.75,258.117C26.265,255.529 26.673,252.773 26.673,249.949C28.131,250.078 28.483,249.33 28.677,248.121C29.157,245.131 29.833,242.173 30.424,239.201C30.632,238.153 31.083,237.134 30.274,236.065C30.08,235.809 30.386,234.91 30.727,234.598C31,234.349 31.843,234.346 32.133,234.59C32.488,234.89 32.836,235.819 32.659,236.027C31.824,237.011 32.24,238.005 32.428,238.983C33.088,242.417 33.796,245.842 34.494,249.268C34.526,249.429 34.639,249.573 34.704,249.704C35.227,249.828 35.711,249.944 36.286,250.081L36.286,257.369L37.577,257.369C38.186,251.919 38.634,246.639 39.386,241.402C41.69,225.355 44.101,209.323 46.489,193.288C49.031,176.215 51.587,159.144 54.177,142.079C54.274,141.443 54.796,140.872 55.207,140.11C51.457,135.713 52.11,132.152 57.467,129.201C57.784,129.027 58.065,128.548 58.116,128.178C58.218,127.432 58.12,126.661 58.158,125.903C58.23,124.432 58.186,123.16 56.756,122.096C55.451,121.124 55.361,118.831 56.658,117.893C58.453,116.593 58.135,114.936 58.148,113.247C58.166,110.786 58.475,110.571 61.031,111.411C61.031,112.771 60.962,114.174 61.066,115.564C61.107,116.108 61.415,116.756 61.815,117.126C63.734,118.897 63.748,120.892 61.828,122.707C61.454,123.06 61.097,123.626 61.069,124.113C60.974,125.736 61.033,127.368 61.033,128.934C66.842,131.401 67.759,135.668 63.914,140.07C64.321,140.929 64.81,141.557 64.916,142.244C66.433,152.1 67.903,161.963 69.375,171.825C70.943,182.323 72.498,192.822 74.065,203.32C75.64,213.875 77.276,224.421 78.782,234.986C79.801,242.135 81.468,249.223 81.032,256.527C81.015,256.804 81.085,257.085 81.121,257.423L82.842,257.423L82.842,249.948C83.483,249.877 83.981,249.823 84.531,249.763C85.271,246.087 86.046,242.504 86.679,238.896C86.831,238.029 86.446,237.08 86.437,236.167C86.432,235.646 86.537,234.844 86.863,234.668C87.305,234.428 88.124,234.485 88.554,234.764C88.847,234.954 88.836,235.747 88.81,236.263C88.772,237.017 88.395,237.8 88.519,238.508C89.058,241.607 89.768,244.677 90.327,247.774C90.556,249.045 90.767,250.179 92.538,250.01C92.538,250.743 92.537,251.32 92.538,251.896C92.54,255.305 92.022,258.689 91.834,262.058C91.397,269.923 91.695,277.829 91.695,285.718C91.695,289.925 91.682,294.133 91.711,298.34C91.715,298.872 91.939,299.403 92.061,299.934C92.287,299.895 92.513,299.855 92.738,299.816L92.738,294.474C93.531,294.401 94.1,294.349 94.781,294.286C95.725,288.957 96.675,283.687 97.559,278.407C97.63,277.983 97.339,277.425 97.068,277.033C96.437,276.123 96.317,275.115 97.269,274.601C97.924,274.247 99.098,274.259 99.746,274.626C100.689,275.161 100.53,276.156 99.894,277.062C99.596,277.486 99.318,278.113 99.399,278.584C100.3,283.801 101.272,289.006 102.228,294.232C102.915,294.341 103.522,294.436 104.22,294.546C104.22,297.967 104.225,301.291 104.211,304.616C104.21,304.89 104.115,305.39 104.009,305.405C102.666,305.598 103.175,306.637 103.173,307.323C103.143,317.608 103.152,327.893 103.152,338.178L103.152,339.802L105.632,339.802L105.632,332.775C107.756,333.336 108.106,332.129 108.393,330.587C109.256,325.947 110.27,321.334 111.131,316.693C111.247,316.066 110.965,315.258 110.625,314.677C110.055,313.704 110.019,312.719 110.934,312.231C111.6,311.875 112.816,311.861 113.399,312.26C113.852,312.57 114.091,314.12 113.75,314.479C112.88,315.398 113.111,316.232 113.32,317.195C113.579,318.39 113.796,319.595 114.04,320.794C114.853,324.78 115.67,328.764 116.485,332.743C117.326,332.824 118.007,332.89 118.844,332.971C118.844,337.064 118.849,341.085 118.833,345.107C118.832,345.374 118.709,345.848 118.575,345.875C117.063,346.17 117.549,347.345 117.549,348.228C117.533,387.322 117.535,426.417 117.535,465.511L117.535,467.659L132.034,467.659L132.034,455.444L145.292,455.444L145.292,462.544L155.722,462.544L155.722,449.696L169.036,449.696L169.036,457.448L183.379,457.448L183.379,324.704C181.676,325.154 181.84,324.013 181.845,322.956C181.858,320.151 181.849,317.346 181.849,314.541L181.849,308.417C182.972,308.343 183.879,308.283 184.79,308.223C186.15,301.383 187.454,294.691 188.839,288.016C189.026,287.113 188.982,286.568 188.27,285.895C187.261,284.942 187.369,283.754 188.379,282.82C189.424,281.854 190.634,281.851 191.702,282.787C192.74,283.697 192.734,284.716 191.942,285.896C191.523,286.518 191.207,287.45 191.33,288.157C192.022,292.117 192.852,296.053 193.653,299.994C194.217,302.766 194.811,305.531 195.383,308.261C196.419,308.312 197.221,308.351 198.229,308.4L198.229,316.942L201.306,316.942L201.306,314.753C201.306,302.364 201.326,289.975 201.273,277.587C201.269,276.45 202.091,274.844 200.088,274.315C199.942,274.276 199.93,273.567 199.929,273.169C199.918,269.429 199.918,265.689 199.931,261.949C199.932,261.564 200.039,261.179 200.1,260.775C200.89,260.73 201.576,260.69 202.289,260.649C202.43,260.131 202.586,259.695 202.666,259.244C203.641,253.734 204.606,248.221 205.571,242.709C205.816,241.313 206.374,239.961 204.982,238.669C204.648,238.359 205.048,236.745 205.577,236.14C206.383,235.217 207.61,235.347 208.567,236.182C209.404,236.913 209.833,238.047 208.985,238.801C207.55,240.078 208.236,241.441 208.429,242.793C208.693,244.638 209.072,246.467 209.403,248.302C210.143,252.414 210.885,256.526 211.617,260.59C214.131,260.841 214.131,260.841 214.133,263.247C214.133,264.298 214.072,265.356 214.167,266.399C214.204,266.812 214.589,267.193 214.816,267.589C215.006,267.506 215.196,267.424 215.386,267.342L215.386,265.451C215.386,254.348 215.556,243.241 215.311,232.144C215.195,226.868 216.086,221.599 214.577,216.255C213.663,213.019 214.408,209.314 214.408,205.672C216.423,206.054 216.708,204.902 216.971,203.427C217.697,199.355 218.623,195.319 219.361,191.248C219.496,190.506 219.037,189.675 219,188.878C218.969,188.199 218.917,187.163 219.294,186.909C219.821,186.553 220.898,186.516 221.437,186.842C221.834,187.082 221.855,188.124 221.848,188.807C221.839,189.719 221.412,190.669 221.561,191.534C222.222,195.382 223.051,199.199 223.762,203.039C224.041,204.543 224.106,206.13 226.526,205.677L226.526,215.154C227.368,215.101 227.975,215.063 228.666,215.019C228.666,213.493 228.575,212.147 228.683,210.818C229.075,206.002 229.349,201.166 230.005,196.384C231.45,185.87 233.099,175.385 234.668,164.888C236.244,154.333 237.825,143.779 239.403,133.225C240.981,122.67 242.554,112.115 244.138,101.561C245.617,91.701 247.09,81.838 248.63,71.987C248.736,71.311 249.385,70.721 249.899,69.902C250.061,70.113 249.979,69.955 249.854,69.851C244.677,65.56 246.298,57.424 252.426,55.396C252.79,55.276 253.202,54.71 253.244,54.315C253.357,53.238 253.283,52.141 253.283,51.035C252.31,50.967 251.57,50.916 250.74,50.859C250.387,46.882 250.042,42.997 249.703,39.177C249.081,38.954 248.591,38.779 247.996,38.567C247.996,34.134 247.761,29.681 248.072,25.267C248.307,21.934 247.464,19.445 244.789,17.424C244.167,16.954 243.788,15.741 243.83,14.897C243.948,12.572 244.403,10.267 244.598,7.944C244.646,7.372 244.388,6.509 243.966,6.212C242.492,5.173 240.885,4.323 239.211,3.331C239.692,2.501 240.257,1.526 240.653,0.842C244.143,4.279 247.562,7.645 250.674,10.708C251.848,10.066 252.596,9.385 253.433,9.251C255.519,8.917 256.236,9.35 256.708,11.436C257.215,13.678 257.398,15.994 257.722,18.281C261.268,18.324 261.337,18.301 262.483,21.731C263.645,25.211 264.714,28.725 265.683,32.263C265.937,33.194 265.666,34.268 265.636,35.276C265.436,35.288 265.235,35.3 265.034,35.312C263.645,32.438 262.255,29.565 260.866,26.691C260.573,30.306 260.592,33.804 260.553,37.302C260.547,37.831 260.431,38.643 260.092,38.831C259.051,39.408 259.066,40.259 259.079,41.213C259.104,42.966 259.04,44.721 259.1,46.472C259.148,47.92 259.167,49.263 257.579,50.032C257.278,50.178 257.078,50.794 257.057,51.205C256.991,52.482 257.032,53.766 257.032,55.013C263.41,56.921 266.344,64.538 260.062,70.411C260.616,70.518 261.079,70.608 261.556,70.701C262.755,78.701 263.94,86.6 265.123,94.5C266.702,105.054 268.279,115.609 269.858,126.163C271.436,136.718 273.013,147.273 274.593,157.827C276.173,168.381 277.781,178.931 279.329,189.49C280.503,197.505 282.191,205.475 281.661,213.657C281.632,214.105 281.726,214.561 281.761,214.984L284.021,214.984L284.021,205.773C284.793,205.657 285.403,205.566 286.039,205.471C287.038,200.539 288.045,195.694 288.969,190.833C289.078,190.257 288.644,189.599 288.617,188.972C288.586,188.247 288.465,187.19 288.861,186.87C289.313,186.505 290.525,186.512 290.974,186.882C291.381,187.217 291.291,188.261 291.263,188.987C291.241,189.565 290.767,190.174 290.863,190.701C291.62,194.828 292.496,198.933 293.267,203.057C293.553,204.583 293.684,206.118 295.954,205.711C295.954,209.338 295.957,212.779 295.947,216.219C295.946,216.503 295.915,217 295.792,217.036C294.539,217.401 294.941,218.414 294.94,219.204C294.923,234.69 294.927,250.176 294.927,265.662L294.927,267.461C295.405,267.43 295.917,267.436 295.921,267.392C296.14,265.191 296.316,262.987 296.496,260.779C297.301,260.728 297.988,260.685 298.751,260.638C299.946,253.97 301.143,247.383 302.269,240.784C302.345,240.34 301.982,239.722 301.653,239.326C300.756,238.245 300.665,237.199 301.699,236.232C302.689,235.305 303.861,235.288 304.867,236.167C305.899,237.07 305.866,238.116 305.086,239.286C304.694,239.874 304.44,240.742 304.531,241.429C304.864,243.911 305.366,246.37 305.811,248.836C306.521,252.776 307.237,256.714 307.942,260.607C308.865,260.702 309.592,260.776 310.394,260.858C310.394,265.151 310.403,269.297 310.378,273.443C310.376,273.805 310.181,274.467 310.03,274.481C308.57,274.613 309.029,275.702 309.028,276.467C309.007,289.382 309.012,302.296 309.017,315.211C309.017,315.777 309.071,316.343 309.103,316.971L312.171,316.971L312.171,308.389C313.195,308.339 314.005,308.299 314.845,308.258C314.989,307.835 315.163,307.462 315.242,307.07C316.45,301.013 317.635,294.95 318.856,288.895C319.097,287.696 319.472,286.65 318.283,285.573C317.403,284.776 317.749,283.577 318.636,282.785C319.638,281.891 320.769,281.883 321.826,282.715C322.786,283.47 323.146,284.718 322.35,285.48C321.051,286.721 321.494,287.921 321.785,289.253C322.095,290.677 322.341,292.114 322.626,293.543C323.6,298.44 324.578,303.337 325.559,308.254C326.571,308.306 327.429,308.349 328.363,308.396C328.405,308.944 328.469,309.4 328.47,309.856C328.478,314.239 328.429,318.622 328.504,323.004C328.525,324.216 328.235,324.901 326.957,324.835L326.957,457.426L341.361,457.426L341.361,449.663L354.631,449.663L354.631,462.493L365.191,462.493L365.191,455.419L378.387,455.419L378.387,467.659L392.778,467.659L392.778,403.589C392.778,385.065 392.781,366.54 392.767,348.016C392.766,347.406 392.742,346.344 392.488,346.264C391.312,345.895 391.594,345.027 391.589,344.267C391.568,340.995 391.575,337.722 391.585,334.45C391.587,333.944 391.657,333.438 391.695,332.937C392.469,332.864 393.097,332.805 393.701,332.748C393.796,332.524 393.893,332.369 393.928,332.201C395.035,326.837 396.148,321.474 397.209,316.1C397.279,315.742 397.023,315.235 396.771,314.912C396.051,313.993 395.946,313.069 396.782,312.247C397.601,311.442 398.609,311.45 399.466,312.201C400.361,312.985 400.273,313.872 399.617,314.85C399.309,315.309 399.113,316.015 399.211,316.545C400.072,321.187 401.024,325.811 401.918,330.446C402.203,331.929 402.37,333.455 404.71,332.761L404.71,339.794L407.162,339.794L407.162,337.778C407.162,329.538 407.283,321.296 407.094,313.061C407.032,310.355 407.352,307.71 406.348,304.83C405.265,301.725 406.103,297.952 406.103,294.463C406.923,294.396 407.491,294.35 408.153,294.297C409.041,289.234 409.95,284.252 410.752,279.253C410.871,278.509 410.39,277.687 410.357,276.895C410.324,276.113 410.24,274.908 410.661,274.636C411.26,274.25 412.484,274.262 413.086,274.652C413.494,274.915 413.383,276.127 413.337,276.905C413.29,277.701 412.889,278.491 412.914,279.275C412.948,280.313 413.242,281.343 413.43,282.375C414.157,286.368 414.888,290.361 415.602,294.274C416.379,294.377 416.938,294.451 417.738,294.556L417.738,299.864C417.935,299.884 418.133,299.905 418.33,299.925C418.43,299.336 418.615,298.746 418.616,298.156C418.633,287.813 418.69,277.469 418.589,267.127C418.561,264.236 418.831,261.372 418.052,258.412C417.364,255.8 417.908,252.864 417.908,249.814C419.639,250.279 419.69,249.19 419.897,248.086C420.497,244.878 421.23,241.696 421.803,238.484C421.93,237.774 421.548,236.986 421.526,236.231C421.51,235.704 421.537,234.971 421.858,234.697C422.184,234.418 423.108,234.36 423.383,234.618C423.743,234.956 423.826,235.697 423.838,236.268C423.848,236.78 423.409,237.331 423.495,237.805C424.218,241.754 425.017,245.689 425.797,249.65C426.385,249.803 426.913,249.941 427.529,250.101L427.529,257.424L429.331,257.424C429.331,254.733 429.038,252.079 429.384,249.511C430.652,240.092 432.125,230.699 433.537,221.299C435.478,208.381 437.447,195.468 439.378,182.549C441.403,168.996 443.387,155.436 445.438,141.886C445.525,141.309 446.097,140.805 446.624,139.988C446.611,139.979 446.27,139.841 446.034,139.6C443.045,136.553 443.638,131.753 447.488,129.877C449.222,129.032 449.472,128.025 449.406,126.397C449.338,124.717 449.461,123.203 447.863,121.914C446.619,120.91 446.574,118.951 447.823,118.007C449.641,116.633 449.344,114.943 449.37,113.193C449.38,112.522 449.372,111.85 449.372,111.217C452.262,110.868 452.262,110.868 452.264,113.318C452.264,113.902 452.303,114.49 452.255,115.07C452.175,116.058 452.426,116.743 453.288,117.432C454.959,118.768 454.84,120.953 453.283,122.492C452.865,122.906 452.352,123.459 452.313,123.98C452.19,125.657 452.267,127.348 452.267,129.003C454.868,129.828 456.633,131.32 457.227,133.901C457.838,136.559 456.761,138.659 455.174,140.008C455.595,140.962 456.049,141.603 456.157,142.297C457.184,148.924 458.148,155.561 459.139,162.194C460.724,172.807 462.316,183.418 463.905,194.03C465.485,204.585 467.197,215.121 468.607,225.698C469.992,236.088 472.585,246.342 472.286,256.931C472.281,257.088 472.393,257.248 472.486,257.504C472.976,257.474 473.463,257.445 474.109,257.407L474.109,250.016C474.762,249.874 475.255,249.767 475.748,249.66C476.503,245.924 477.283,242.279 477.946,238.611C478.082,237.857 477.714,237.024 477.699,236.224C477.689,235.698 477.732,234.895 478.047,234.706C478.478,234.446 479.298,234.462 479.741,234.721C480.044,234.899 480.092,235.695 480.068,236.207C480.034,236.957 479.617,237.739 479.741,238.441C480.309,241.653 481.092,244.829 481.62,248.047C481.831,249.331 482.277,250.044 483.764,249.981C483.764,250.68 483.727,251.258 483.771,251.829C484.03,255.202 483.102,258.501 483.014,261.809C482.758,271.561 482.923,281.325 482.923,291.084C482.923,293.538 482.902,295.993 482.941,298.446C482.948,298.945 483.181,299.439 483.309,299.935C483.509,299.903 483.709,299.87 483.909,299.838L483.909,294.532C484.751,294.411 485.365,294.322 486.034,294.226C486.861,289.512 487.66,284.859 488.505,280.215C488.744,278.9 489.1,277.676 488.067,276.441C487.809,276.132 488.167,274.77 488.58,274.562C489.22,274.24 490.282,274.247 490.909,274.587C491.324,274.812 491.648,276.24 491.394,276.484C490.156,277.673 490.687,278.951 490.91,280.225C491.732,284.919 492.578,289.608 493.404,294.242C494.185,294.363 494.792,294.458 495.458,294.562C495.458,297.952 495.465,301.222 495.447,304.491C495.445,304.815 495.327,305.154 495.2,305.459C494.953,306.049 494.425,306.62 494.423,307.201C494.374,317.544 494.386,327.887 494.391,338.231C494.391,338.742 494.443,339.253 494.471,339.778L496.907,339.778L496.907,332.723C498.816,333.298 499.274,332.394 499.553,330.862C500.421,326.105 501.478,321.382 502.38,316.63C502.49,316.049 502.257,315.28 501.925,314.765C501.271,313.75 501.214,312.727 502.217,312.19C502.872,311.84 504.084,311.876 504.705,312.273C505.666,312.886 505.48,313.931 504.815,314.886C504.533,315.291 504.339,315.927 504.429,316.396C505.33,321.089 506.368,325.756 507.212,330.459C507.5,332.063 507.838,333.268 509.964,332.877C509.964,337.063 509.966,341.082 509.958,345.101C509.958,345.328 509.936,345.712 509.82,345.757C508.219,346.379 508.79,347.756 508.79,348.848C508.771,512.473 508.772,676.097 508.773,839.721C508.773,840.481 508.787,841.24 508.794,842Z" style="fill:rgb(118,120,123);fill-rule:nonzero;"/>
            </g>
        </g>
    </g>
    <g transform="matrix(2.43011,0,0,2.43011,-140.334,-70.9869)">
        <g transform="matrix(50,0,0,50,53.327,86.0386)">
            <path d="M0.531,-0.263L0.671,-0.219C0.649,-0.141 0.614,-0.083 0.564,-0.045C0.514,-0.007 0.45,0.012 0.374,0.012C0.278,0.012 0.2,-0.02 0.139,-0.085C0.078,-0.15 0.047,-0.239 0.047,-0.352C0.047,-0.471 0.078,-0.563 0.14,-0.629C0.201,-0.695 0.282,-0.728 0.382,-0.728C0.47,-0.728 0.541,-0.702 0.596,-0.65C0.628,-0.62 0.653,-0.576 0.669,-0.519L0.526,-0.484C0.517,-0.521 0.5,-0.551 0.473,-0.572C0.446,-0.594 0.413,-0.604 0.375,-0.604C0.322,-0.604 0.279,-0.585 0.246,-0.547C0.213,-0.509 0.196,-0.448 0.196,-0.362C0.196,-0.272 0.213,-0.207 0.245,-0.169C0.278,-0.131 0.32,-0.111 0.372,-0.111C0.41,-0.111 0.444,-0.124 0.471,-0.148C0.499,-0.172 0.519,-0.211 0.531,-0.263Z" style="fill:rgb(77,107,197);fill-rule:nonzero;"/>
        </g>
        <g transform="matrix(50,0,0,50,89.4354,86.0386)">
            <path d="M0.208,-0.716L0.208,-0.453C0.253,-0.504 0.306,-0.53 0.367,-0.53C0.399,-0.53 0.427,-0.524 0.453,-0.513C0.478,-0.501 0.497,-0.486 0.51,-0.468C0.523,-0.45 0.532,-0.429 0.536,-0.407C0.541,-0.385 0.543,-0.351 0.543,-0.304L0.543,-0L0.406,-0L0.406,-0.274C0.406,-0.328 0.404,-0.363 0.398,-0.377C0.393,-0.392 0.384,-0.404 0.371,-0.412C0.358,-0.421 0.341,-0.425 0.321,-0.425C0.299,-0.425 0.278,-0.42 0.26,-0.409C0.242,-0.398 0.229,-0.381 0.221,-0.359C0.213,-0.336 0.208,-0.303 0.208,-0.26L0.208,-0L0.071,-0L0.071,-0.716L0.208,-0.716Z" style="fill:rgb(77,107,197);fill-rule:nonzero;"/>
        </g>
        <g transform="matrix(50,0,0,50,119.977,86.0386)">
            <path d="M0.413,-0L0.413,-0.078C0.394,-0.05 0.369,-0.028 0.339,-0.012C0.308,0.004 0.275,0.012 0.241,0.012C0.206,0.012 0.175,0.004 0.147,-0.011C0.12,-0.027 0.1,-0.048 0.087,-0.076C0.075,-0.103 0.069,-0.142 0.069,-0.19L0.069,-0.519L0.206,-0.519L0.206,-0.28C0.206,-0.207 0.209,-0.163 0.214,-0.146C0.219,-0.13 0.228,-0.117 0.241,-0.107C0.255,-0.098 0.271,-0.093 0.292,-0.093C0.315,-0.093 0.336,-0.099 0.355,-0.112C0.374,-0.125 0.386,-0.141 0.393,-0.16C0.4,-0.179 0.403,-0.226 0.403,-0.3L0.403,-0.519L0.541,-0.519L0.541,-0L0.413,-0Z" style="fill:rgb(77,107,197);fill-rule:nonzero;"/>
        </g>
        <g transform="matrix(50,0,0,50,150.519,86.0386)">
            <path d="M0.203,-0L0.066,-0L0.066,-0.519L0.193,-0.519L0.193,-0.445C0.215,-0.48 0.235,-0.503 0.252,-0.514C0.27,-0.525 0.289,-0.53 0.312,-0.53C0.343,-0.53 0.373,-0.522 0.402,-0.504L0.359,-0.385C0.336,-0.4 0.315,-0.407 0.295,-0.407C0.276,-0.407 0.259,-0.402 0.246,-0.391C0.233,-0.381 0.222,-0.362 0.215,-0.334C0.207,-0.306 0.203,-0.248 0.203,-0.16L0.203,-0Z" style="fill:rgb(77,107,197);fill-rule:nonzero;"/>
        </g>
        <g transform="matrix(50,0,0,50,169.977,86.0386)">
            <path d="M0.524,-0.365L0.389,-0.341C0.384,-0.368 0.374,-0.388 0.358,-0.402C0.342,-0.416 0.321,-0.422 0.295,-0.422C0.261,-0.422 0.233,-0.411 0.213,-0.387C0.193,-0.363 0.183,-0.324 0.183,-0.269C0.183,-0.207 0.193,-0.164 0.214,-0.138C0.234,-0.113 0.262,-0.1 0.297,-0.1C0.323,-0.1 0.344,-0.108 0.361,-0.122C0.377,-0.137 0.389,-0.163 0.396,-0.199L0.531,-0.176C0.517,-0.114 0.49,-0.067 0.45,-0.036C0.41,-0.004 0.357,0.012 0.291,0.012C0.215,0.012 0.154,-0.012 0.109,-0.06C0.064,-0.108 0.042,-0.174 0.042,-0.259C0.042,-0.344 0.064,-0.411 0.109,-0.459C0.155,-0.506 0.216,-0.53 0.293,-0.53C0.356,-0.53 0.406,-0.517 0.444,-0.49C0.481,-0.462 0.508,-0.421 0.524,-0.365Z" style="fill:rgb(77,107,197);fill-rule:nonzero;"/>
        </g>
        <g transform="matrix(50,0,0,50,197.785,86.0386)">
            <path d="M0.208,-0.716L0.208,-0.453C0.253,-0.504 0.306,-0.53 0.367,-0.53C0.399,-0.53 0.427,-0.524 0.453,-0.513C0.478,-0.501 0.497,-0.486 0.51,-0.468C0.523,-0.45 0.532,-0.429 0.536,-0.407C0.541,-0.385 0.543,-0.351 0.543,-0.304L0.543,-0L0.406,-0L0.406,-0.274C0.406,-0.328 0.404,-0.363 0.398,-0.377C0.393,-0.392 0.384,-0.404 0.371,-0.412C0.358,-0.421 0.341,-0.425 0.321,-0.425C0.299,-0.425 0.278,-0.42 0.26,-0.409C0.242,-0.398 0.229,-0.381 0.221,-0.359C0.213,-0.336 0.208,-0.303 0.208,-0.26L0.208,-0L0.071,-0L0.071,-0.716L0.208,-0.716Z" style="fill:rgb(77,107,197);fill-rule:nonzero;"/>
        </g>
        <g transform="matrix(50,0,0,50,228.327,86.0386)">
            <rect x="0.072" y="-0.716" width="0.137" height="0.716" style="fill:rgb(77,107,197);fill-rule:nonzero;"/>
        </g>
        <g transform="matrix(50,0,0,50,242.219,86.0386)">
            <path d="M0.372,-0.165L0.509,-0.142C0.491,-0.092 0.463,-0.054 0.426,-0.028C0.388,-0.001 0.34,0.012 0.283,0.012C0.193,0.012 0.126,-0.018 0.083,-0.077C0.049,-0.124 0.032,-0.183 0.032,-0.255C0.032,-0.341 0.054,-0.409 0.099,-0.457C0.144,-0.506 0.201,-0.53 0.27,-0.53C0.347,-0.53 0.408,-0.505 0.452,-0.454C0.497,-0.403 0.518,-0.325 0.516,-0.22L0.172,-0.22C0.173,-0.179 0.184,-0.147 0.206,-0.125C0.227,-0.102 0.253,-0.091 0.285,-0.091C0.306,-0.091 0.324,-0.097 0.339,-0.108C0.354,-0.12 0.365,-0.139 0.372,-0.165ZM0.38,-0.304C0.379,-0.343 0.369,-0.374 0.349,-0.394C0.33,-0.415 0.306,-0.425 0.278,-0.425C0.248,-0.425 0.223,-0.414 0.204,-0.393C0.184,-0.371 0.174,-0.341 0.175,-0.304L0.38,-0.304Z" style="fill:rgb(77,107,197);fill-rule:nonzero;"/>
        </g>
    </g>
</svg>
